<svg width="302" height="255" viewBox="0 0 302 255" fill="none" xmlns="http://www.w3.org/2000/svg">
<path d="M296 3V0L302 0V3L296 3ZM37.0001 183V186H31.0001V183H37.0001ZM302 3C302 7.14272 301.707 11.2373 301.155 15.264L295.21 14.4492C295.727 10.6815 296 6.8593 296 3L302 3ZM292.934 43.3895C289.522 50.9602 285.325 58.0329 280.657 64.4329L275.809 60.8972C280.249 54.8104 284.232 48.0944 287.464 40.924L292.934 43.3895ZM260.608 85.7206C257.268 88.426 253.885 90.7985 250.532 92.7905L247.468 87.632C250.549 85.8017 253.695 83.5988 256.832 81.058L260.608 85.7206ZM250.532 92.7905C244.977 96.0907 238.448 98.0184 231.62 99.0409L230.732 93.1071C237.064 92.1589 242.783 90.4154 247.468 87.632L250.532 92.7905ZM185.57 96.8268C181.459 96.0995 177.729 95.3488 174.572 94.6967C171.386 94.0385 168.855 93.4962 167.04 93.1616L168.128 87.261C170.027 87.6111 172.681 88.1794 175.786 88.8207C178.92 89.4681 182.587 90.2058 186.615 90.9186L185.57 96.8268ZM167.04 93.1616C163.588 92.5252 156.762 91.4977 148.363 90.5705L149.021 84.6068C157.52 85.545 164.495 86.5914 168.128 87.261L167.04 93.1616ZM103.217 88.9536C95.6497 89.5594 89.6175 90.8327 85.9391 92.8436L83.0611 87.5789C87.9086 84.929 95.0139 83.5911 102.738 82.9728L103.217 88.9536ZM85.9391 92.8436C82.8558 94.5291 79.254 96.6266 75.4225 99.3028L71.9867 94.3839C76.058 91.5402 79.8634 89.327 83.0611 87.5789L85.9391 92.8436ZM54.5932 119.832C50.3364 125.838 46.4619 133.005 43.439 141.589L37.7796 139.597C40.9918 130.475 45.1268 122.812 49.698 116.362L54.5932 119.832ZM37.4954 170.556C37.1717 174.504 37.0001 178.648 37.0001 183H31.0001C31.0001 178.49 31.1779 174.182 31.5154 170.066L37.4954 170.556Z" fill="black"/>
<line x1="4.96666" y1="250.757" x2="63.7575" y2="191.033" stroke="#C50000" stroke-width="6" stroke-linecap="square"/>
<line x1="4.24265" y1="191" x2="63.502" y2="250.259" stroke="#C50000" stroke-width="6" stroke-linecap="square"/>
</svg>
